<svg width="220" height="64" viewBox="0 0 220 64" fill="none" xmlns="http://www.w3.org/2000/svg" role="img" aria-label="BrainBoost logo">
  <rect width="220" height="64" rx="18" fill="white"/>
  <path d="M27.4 35.2c-5.1-2.1-7.8-6.4-7.8-11.1 0-6.9 5.4-12.3 12.2-12.3 3.5 0 6.6 1.4 8.8 3.8 2.2-2.4 5.3-3.8 8.8-3.8 6.8 0 12.2 5.4 12.2 12.3 0 4.7-2.7 9-7.8 11.1l-13.2 8.9-13.2-8.9Z" fill="#F8A9BC" stroke="#111113" stroke-width="3" stroke-linejoin="round"/>
  <path d="M40.6 15.8v28.3M29.7 23.5c3.7-.1 6.4 1.6 7.7 4.8M51.5 23.5c-3.7-.1-6.4 1.6-7.7 4.8M31.2 33.1c2.4 1.1 4.3 3 5.3 5.5M50 33.1c-2.4 1.1-4.3 3-5.3 5.5" stroke="#111113" stroke-width="2.2" stroke-linecap="round"/>
  <path d="M26 46.8h29.1c2.3 0 4.1 1.8 4.1 4.1v2.6H30.1c-2.3 0-4.1-1.8-4.1-4.1v-2.6Z" fill="#FFD84D" stroke="#111113" stroke-width="3" stroke-linejoin="round"/>
  <path d="M74.5 41.4V18.2h10.9c5.1 0 8.1 2.3 8.1 6.1 0 2.4-1.3 4.2-3.4 5 2.7.7 4.2 2.8 4.2 5.4 0 4.2-3.2 6.7-8.6 6.7H74.5Zm5.7-13.9h4.5c2 0 3.1-.9 3.1-2.5s-1.1-2.4-3.1-2.4h-4.5v4.9Zm0 9.4h5c2.2 0 3.3-1 3.3-2.8s-1.2-2.8-3.4-2.8h-4.9v5.6ZM98.1 41.4V23.8h5.2v2.5c1.1-1.9 2.8-2.8 5.1-2.8h1.1v5h-1.7c-2.8 0-4.2 1.5-4.2 4.6v8.3h-5.5ZM118.8 41.8c-4 0-6.6-2.2-6.6-5.6 0-3.6 2.8-5.5 7.9-5.5h4v-.9c0-1.7-1-2.7-3.1-2.7-1.8 0-2.9.8-3.2 2.1h-5.1c.5-3.6 3.6-5.8 8.5-5.8 5.3 0 8.2 2.5 8.2 6.7v11.3h-5.1v-2.1c-1.1 1.6-3 2.5-5.5 2.5Zm1.6-3.9c2.3 0 3.8-1.2 3.8-3.1v-.8h-3.5c-2.2 0-3.2.7-3.2 2 0 1.2 1 1.9 2.9 1.9ZM133.8 21.5v-4.7h5.6v4.7h-5.6Zm.1 19.9V23.8h5.5v17.6h-5.5ZM144.2 41.4V23.8h5.2v2.2c1.2-1.7 3.1-2.6 5.5-2.6 4.1 0 6.6 2.6 6.6 7v11h-5.5V31.2c0-2.2-1.1-3.4-3.1-3.4-2 0-3.3 1.4-3.3 3.8v9.8h-5.4ZM165.9 41.4V18.2h10.9c5.1 0 8.1 2.3 8.1 6.1 0 2.4-1.3 4.2-3.4 5 2.7.7 4.2 2.8 4.2 5.4 0 4.2-3.2 6.7-8.6 6.7h-11.2Zm5.7-13.9h4.5c2 0 3.1-.9 3.1-2.5s-1.1-2.4-3.1-2.4h-4.5v4.9Zm0 9.4h5c2.2 0 3.3-1 3.3-2.8s-1.2-2.8-3.4-2.8h-4.9v5.6Z" fill="#111113"/>
  <path d="M191.2 41.4V18.2h5.6v18.6h12.1v4.6h-17.7Z" fill="#F4C62D"/>
</svg>
